<svg width="50" height="44" viewBox="0 0 50 44" fill="none" xmlns="http://www.w3.org/2000/svg">
<path d="M28.9389 0.962601H8.71274C4.31323 0.962601 0.746826 4.5291 0.746826 8.92852V16.9674C0.746826 19.8815 2.31265 22.4287 4.6481 23.8172C4.95044 23.997 5.13667 24.3215 5.13667 24.6732V29.0212C5.13667 29.5534 5.78022 29.82 6.15659 29.4437L10.3752 25.225C10.562 25.0383 10.8153 24.9334 11.0793 24.9334H28.9391C33.3386 24.9334 36.905 21.3669 36.905 16.9675V8.92862C36.9048 4.52911 33.3383 0.962601 28.9389 0.962601Z" fill="#F9C301"/>
<path d="M31.1996 1.29004C31.4114 2.00693 31.527 2.76514 31.527 3.55078V11.5896C31.527 15.9891 27.9605 19.5556 23.5611 19.5556H3.33481C2.54868 19.5556 1.78989 19.4398 1.07251 19.2276C1.64722 21.1716 2.9439 22.8054 4.6519 23.8195C4.95288 23.9982 5.13647 24.323 5.13647 24.6731V29.0212C5.13647 29.5534 5.78003 29.82 6.1564 29.4437L10.375 25.225C10.5618 25.0383 10.8151 24.9334 11.0792 24.9334H28.9389C33.3384 24.9334 36.9048 21.3669 36.9048 16.9675V8.92861C36.9047 5.31465 34.4974 2.26465 31.1996 1.29004Z" fill="#D4A806"/>
<path d="M41.2873 13.5489H20.9615C16.562 13.5489 12.9956 17.1154 12.9956 21.5148V29.5537C12.9956 33.9532 16.5621 37.5196 20.9615 37.5196H38.1662C38.4303 37.5196 38.6836 37.6245 38.8703 37.8112L43.9239 42.8648C44.3003 43.2412 44.9439 42.9746 44.9439 42.4424V37.211C44.9439 36.8657 45.1219 36.5435 45.417 36.3643C47.7164 34.9673 49.2532 32.4407 49.2532 29.5536V21.5147C49.2532 17.1153 45.6867 13.5489 41.2873 13.5489Z" fill="#FCE25C"/>
<path d="M43.548 13.8764C43.7599 14.5933 43.8754 15.3515 43.8754 16.1371V24.176C43.8754 28.5755 40.3089 32.1419 35.9095 32.1419H15.5837C14.7982 32.1419 14.0399 32.0264 13.323 31.8145C14.2976 35.1124 17.3476 37.5196 20.9615 37.5196H38.1662C38.4302 37.5196 38.6835 37.6245 38.8703 37.8112L43.9239 42.8649C44.3002 43.2412 44.9438 42.9746 44.9438 42.4424V37.211C44.9438 36.8657 45.1218 36.5436 45.4169 36.3643C47.7164 34.9673 49.2532 32.4407 49.2532 29.5536V21.5148C49.2532 17.901 46.8459 14.851 43.548 13.8764Z" fill="#F9C301"/>
<path d="M19.0216 28.8806H18.956C18.0324 28.8806 17.2837 28.1318 17.2837 27.2083V24.4498C17.2837 23.5263 18.0324 22.7775 18.956 22.7775H19.0216C19.9451 22.7775 20.6938 23.5263 20.6938 24.4498V27.2083C20.6938 28.1318 19.9451 28.8806 19.0216 28.8806Z" fill="#7C8B96"/>
<path d="M31.1573 28.8806H31.0917C30.1682 28.8806 29.4194 28.1318 29.4194 27.2083V24.4498C29.4194 23.5263 30.1682 22.7775 31.0917 22.7775H31.1573C32.0809 22.7775 32.8296 23.5263 32.8296 24.4498V27.2083C32.8296 28.1318 32.0809 28.8806 31.1573 28.8806Z" fill="#7C8B96"/>
<path d="M19.315 22.8096C19.3355 22.9152 19.347 23.0242 19.347 23.1358V25.8287C19.347 26.7704 18.5836 27.5338 17.6419 27.5338C17.5302 27.5338 17.4213 27.5223 17.3157 27.5018C17.468 28.2872 18.1587 28.8805 18.9887 28.8805C19.9304 28.8805 20.6938 28.1171 20.6938 27.1754V24.4825C20.6937 23.6526 20.1004 22.9619 19.315 22.8096Z" fill="#465961"/>
<path d="M31.4507 22.8096C31.4712 22.9152 31.4828 23.0242 31.4828 23.1358V25.8287C31.4828 26.7704 30.7194 27.5338 29.7777 27.5338C29.666 27.5338 29.5571 27.5223 29.4514 27.5018C29.6038 28.2872 30.2945 28.8805 31.1245 28.8805C32.0662 28.8805 32.8295 28.1171 32.8295 27.1754V24.4825C32.8294 23.6526 32.2362 22.9619 31.4507 22.8096Z" fill="#465961"/>
<path d="M26.871 33.083C27.8403 33.083 28.6261 32.4657 28.6261 31.7041C28.6261 30.9426 27.8403 30.3252 26.871 30.3252C25.9017 30.3252 25.116 30.9426 25.116 31.7041C25.116 32.4657 25.9017 33.083 26.871 33.083Z" fill="#7C8B96"/>
<path d="M27.6494 30.4695C27.677 30.5665 27.6927 30.6671 27.6927 30.7706C27.6927 31.5321 26.9068 32.1495 25.9376 32.1495C25.6576 32.1495 25.394 32.0967 25.1592 32.0051C25.3342 32.6217 26.0335 33.083 26.8711 33.083C27.8404 33.083 28.6262 32.4656 28.6262 31.7041C28.6261 31.1625 28.2276 30.6951 27.6494 30.4695Z" fill="#465961"/>
<path d="M41.2873 12.8021H37.6516V8.92852C37.6516 6.70879 36.8164 4.59424 35.2999 2.97461C35.018 2.67344 34.5453 2.65801 34.2443 2.93994C33.9433 3.22188 33.9277 3.69443 34.2097 3.99541C35.466 5.3373 36.158 7.08926 36.158 8.92852V12.8021H20.9615C16.1573 12.8021 12.2488 16.7106 12.2488 21.5148V24.1865H11.0791C10.6138 24.1865 10.1762 24.3678 9.84697 24.6969L5.8833 28.6605V24.6732C5.8833 24.0624 5.55625 23.4884 5.02959 23.1753C2.84854 21.8785 1.49355 19.4998 1.49355 16.9675V8.92852C1.49355 4.94785 4.73203 1.70937 8.7127 1.70937H28.9389C29.8719 1.70937 30.7794 1.88447 31.6362 2.22998C32.0187 2.38398 32.4539 2.19902 32.6081 1.8166C32.7623 1.43408 32.5772 0.998926 32.1947 0.844726C31.1597 0.427344 30.0642 0.21582 28.9389 0.21582H8.7127C3.9085 0.21582 0 4.12432 0 8.92852V16.9675C0 20.0239 1.63477 22.8945 4.26631 24.4591C4.34248 24.5044 4.38975 24.5864 4.38975 24.6733V29.0212C4.38975 29.5668 4.71543 30.0542 5.21953 30.2631C5.55596 30.4248 6.24287 30.4015 6.68447 29.9718L10.903 25.7531C10.9501 25.7061 11.0126 25.6802 11.0791 25.6802H12.2488V29.5537C12.2488 30.7297 12.4793 31.8708 12.9338 32.9454C13.0944 33.3252 13.5326 33.5026 13.9125 33.3423C14.2924 33.1816 14.47 32.7435 14.3095 32.3636C13.9333 31.4741 13.7425 30.5288 13.7425 29.5538V21.5149C13.7425 17.5342 16.981 14.2957 20.9616 14.2957H41.2873C45.268 14.2957 48.5064 17.5342 48.5064 21.5149V29.5538C48.5064 32.096 47.2065 34.4034 45.0291 35.7263C44.5159 36.0381 44.1971 36.6071 44.1971 37.2112V42.0819L39.3984 37.2832C39.0693 36.9541 38.6317 36.7729 38.1663 36.7729H20.9615C19.1499 36.7729 17.4176 36.099 16.0835 34.8756C15.7796 34.597 15.3072 34.6173 15.0283 34.9212C14.7495 35.2252 14.7699 35.6976 15.0739 35.9764C16.6842 37.4532 18.775 38.2665 20.9614 38.2665H38.1661C38.2316 38.2665 38.2958 38.2931 38.3421 38.3395L43.3957 43.3931C43.7859 43.693 44.1674 43.9248 44.8605 43.6844C45.3646 43.4755 45.6903 42.9881 45.6903 42.4425V37.2111C45.6903 37.1253 45.7341 37.0453 45.8044 37.0026C48.4316 35.4066 50 32.6221 50 29.5537V21.5148C50 16.7106 46.0915 12.8021 41.2873 12.8021V12.8021Z" fill="black"/>
<path d="M29.0167 30.6119C28.5788 29.9932 27.781 29.5783 26.8711 29.5783C25.4916 29.5783 24.3693 30.5319 24.3693 31.7041C24.3693 32.8762 25.4917 33.8298 26.8711 33.8298C28.0817 33.8298 29.0939 33.0955 29.3239 32.1236C30.4254 31.6597 31.2926 30.7352 31.669 29.5655C32.7596 29.3172 33.5763 28.3402 33.5763 27.1754V24.4825C33.5763 23.358 32.8152 22.4086 31.7812 22.1207C31.5378 20.6208 30.8007 19.2445 29.6708 18.2044C28.4099 17.0437 26.7712 16.4046 25.0566 16.4046C21.6825 16.4046 18.8603 18.835 18.3313 22.1208C17.2977 22.4089 16.5369 23.3582 16.5369 24.4824V27.1753C16.5369 28.5272 17.6368 29.6271 18.9887 29.6271C20.3407 29.6271 21.4406 28.5272 21.4406 27.1753V24.4824C21.4406 23.4282 20.7717 22.5273 19.8362 22.1816C20.3204 19.7075 22.4832 17.8981 25.0566 17.8981C27.5974 17.8981 29.7875 19.7392 30.275 22.1824C29.3405 22.5286 28.6726 23.4289 28.6726 24.4824V27.1753C28.6726 28.1718 29.2705 29.0308 30.1261 29.4139C29.8887 29.924 29.4982 30.3407 29.0167 30.6119V30.6119ZM26.8711 32.3363C26.2769 32.3363 25.8628 32.0032 25.8628 31.7042C25.8628 31.4052 26.2769 31.072 26.8711 31.072C27.4654 31.072 27.8795 31.4052 27.8795 31.7042C27.8795 32.0032 27.4653 32.3363 26.8711 32.3363ZM19.947 27.1755C19.947 27.7039 19.5171 28.1338 18.9887 28.1338C18.4603 28.1338 18.0304 27.7039 18.0304 27.1755V24.4826C18.0304 23.9542 18.4603 23.5243 18.9887 23.5243C19.5171 23.5243 19.947 23.9542 19.947 24.4826V27.1755ZM30.1662 24.4826C30.1662 23.9542 30.596 23.5243 31.1245 23.5243C31.6529 23.5243 32.0828 23.9542 32.0828 24.4826V27.1755C32.0828 27.7039 31.6529 28.1338 31.1245 28.1338C30.596 28.1338 30.1662 27.7039 30.1662 27.1755V24.4826Z" fill="black"/>
<path d="M35.5168 20.637H41.4651C41.8775 20.637 42.2119 20.3027 42.2119 19.8902C42.2119 19.4777 41.8775 19.1435 41.4651 19.1435H35.5168C35.1044 19.1435 34.77 19.4777 34.77 19.8902C34.77 20.3027 35.1044 20.637 35.5168 20.637Z" fill="black"/>
<path d="M35.5168 23.9801H40.1034C40.5158 23.9801 40.8502 23.6458 40.8502 23.2333C40.8502 22.8208 40.5158 22.4865 40.1034 22.4865H35.5168C35.1044 22.4865 34.77 22.8208 34.77 23.2333C34.77 23.6458 35.1044 23.9801 35.5168 23.9801Z" fill="black"/>
<path d="M7.34702 11.0971C7.96192 11.0971 8.4604 10.5986 8.4604 9.98369C8.4604 9.36879 7.96192 8.87032 7.34702 8.87032C6.73212 8.87032 6.23364 9.36879 6.23364 9.98369C6.23364 10.5986 6.73212 11.0971 7.34702 11.0971Z" fill="black"/>
<path d="M10.7191 11.0971C11.334 11.0971 11.8325 10.5986 11.8325 9.98369C11.8325 9.36879 11.334 8.87032 10.7191 8.87032C10.1042 8.87032 9.60571 9.36879 9.60571 9.98369C9.60571 10.5986 10.1042 11.0971 10.7191 11.0971Z" fill="black"/>
<path d="M14.0714 11.0971C14.6863 11.0971 15.1848 10.5986 15.1848 9.98369C15.1848 9.36879 14.6863 8.87032 14.0714 8.87032C13.4565 8.87032 12.958 9.36879 12.958 9.98369C12.958 10.5986 13.4565 11.0971 14.0714 11.0971Z" fill="black"/>
</svg>
