<svg width="48" height="50" viewBox="0 0 48 50" fill="none" xmlns="http://www.w3.org/2000/svg">
<path d="M23.3194 1.06105L1.74058 11.4782C1.47007 11.6088 1.2981 11.8828 1.2981 12.1832V37.8165C1.2981 38.1169 1.47007 38.3908 1.74058 38.5215L23.3194 48.939C23.7495 49.1466 24.2506 49.1466 24.6807 48.939L46.2595 38.5216C46.53 38.391 46.702 38.117 46.702 37.8166V12.1833C46.702 11.8829 46.53 11.609 46.2595 11.4783L24.6807 1.06105C24.2506 0.85343 23.7495 0.85343 23.3194 1.06105Z" fill="#FFE17D"/>
<path d="M1.42827 11.7547C1.34595 11.88 1.2981 12.0275 1.2981 12.1832V37.8165C1.2981 38.117 1.47007 38.3908 1.74058 38.5215L23.3194 48.939C23.5344 49.0428 23.7672 49.0947 24 49.0947V22.6515L1.42827 11.7547Z" fill="#FFC350"/>
<path d="M46.5718 11.7547C46.6541 11.88 46.702 12.0275 46.702 12.1832V37.8165C46.702 38.117 46.53 38.3908 46.2595 38.5215L24.6807 48.939C24.4656 49.0428 24.2328 49.0947 24 49.0947V22.6515L46.5718 11.7547Z" fill="#FFD164"/>
<path d="M38.9225 15.4348L16.2714 4.49219L10.3005 7.38633L33.0024 18.346L38.9225 15.4348Z" fill="#FF8087"/>
<path d="M33.0024 18.346V26.8362C33.0024 27.1248 33.3041 27.3141 33.5641 27.1887L38.4801 24.8154C38.7507 24.6849 38.9226 24.4108 38.9226 24.1104V15.4348L33.0024 18.346Z" fill="#E6646E"/>
<path d="M47.0205 11.0322L24.3185 0.0728638C24.1172 -0.0242065 23.8829 -0.0242065 23.6817 0.0728638L0.979639 11.0322C0.726514 11.1544 0.565674 11.4108 0.565674 11.6918V38.3079C0.565674 38.589 0.726514 38.8453 0.979639 38.9675L23.6816 49.9271C23.7822 49.9756 23.8912 49.9999 24 49.9999C24.1089 49.9999 24.2178 49.9756 24.3185 49.9271L47.0205 38.9675C47.2736 38.8453 47.4344 38.589 47.4344 38.3079V11.6919C47.4344 11.4108 47.2735 11.1545 47.0205 11.0322ZM24 1.54572L45.0173 11.6919L38.9249 14.6331C38.8863 14.6037 38.8456 14.5766 38.8008 14.555L17.9263 4.47784L24 1.54572ZM16.2722 5.30597L37.2589 15.4374L32.9606 17.5125L11.9826 7.38507L16.2722 5.30597ZM33.735 18.7652L37.75 16.827V24.4975L33.735 26.4358V18.7652ZM24.7325 48.1007V23.1111L29.7982 20.6656C30.1624 20.4898 30.3152 20.052 30.1393 19.6876C29.9634 19.3235 29.5256 19.1705 29.1613 19.3465L24 21.8382L21.9692 20.8577C21.6048 20.6817 21.167 20.8346 20.9912 21.1988C20.8153 21.5631 20.968 22.001 21.3323 22.1769L23.2676 23.1111V48.1006L2.03052 37.8483V12.8587L18.2024 20.6658C18.305 20.7154 18.4135 20.7389 18.5203 20.7389C18.7925 20.7389 19.0541 20.5863 19.1803 20.3247C19.3562 19.9605 19.2035 19.5226 18.8392 19.3467L2.98276 11.6918L10.2586 8.17931L32.26 18.8008C32.2632 18.8053 32.2668 18.8093 32.2702 18.8137V27.6026C32.2702 27.8547 32.3998 28.089 32.6132 28.2231C32.7318 28.2975 32.867 28.3351 33.0027 28.3351C33.1113 28.3351 33.2202 28.311 33.321 28.2622L38.8008 25.6168C39.054 25.4946 39.2148 25.2384 39.2148 24.9572V16.1198L45.9696 12.8589V37.8484L24.7325 48.1007Z" fill="black"/>
<path d="M8.07473 35.0078L4.74319 33.3995C4.37873 33.2234 3.94104 33.3764 3.76516 33.7406C3.58928 34.1049 3.74202 34.5428 4.10627 34.7187L7.43782 36.327C7.54045 36.3766 7.64895 36.4 7.75569 36.4C8.02795 36.4 8.28948 36.2475 8.41575 35.9859C8.59172 35.6215 8.43899 35.1837 8.07473 35.0078Z" fill="black"/>
<path d="M11.1408 33.0119L4.74776 29.9256C4.38341 29.7497 3.94562 29.9024 3.76974 30.2668C3.59396 30.631 3.74669 31.0689 4.11095 31.2448L10.504 34.3311C10.6067 34.3806 10.7151 34.4042 10.8219 34.4042C11.0942 34.4042 11.3557 34.2516 11.4819 33.99C11.6578 33.6257 11.5051 33.1877 11.1408 33.0119Z" fill="black"/>
</svg>
