<svg width="50" height="36" viewBox="0 0 50 36" fill="none" xmlns="http://www.w3.org/2000/svg">
<path d="M46.1349 28.9451H10.1272C8.39799 28.9451 6.99609 27.5432 6.99609 25.814V3.8963C6.99609 2.1671 8.39799 0.765198 10.1272 0.765198H46.1349C47.8641 0.765198 49.266 2.1671 49.266 3.8963V25.814C49.266 27.5432 47.8641 28.9451 46.1349 28.9451Z" fill="#7FDCD5"/>
<path d="M39.8727 4.67908H6.99609V25.814C6.99609 27.5432 8.39799 28.9451 10.1272 28.9451H45.3521V10.1585C45.3521 7.13689 42.8943 4.67908 39.8727 4.67908Z" fill="#5FD4CA"/>
<path d="M39.8727 35.2073H3.86499C2.13579 35.2073 0.733887 33.8054 0.733887 32.0762V10.1585C0.733887 8.42931 2.13579 7.0274 3.86499 7.0274H39.8727C41.6019 7.0274 43.0038 8.42931 43.0038 10.1585V32.0762C43.0038 33.8054 41.6019 35.2073 39.8727 35.2073Z" fill="#FFE477"/>
<path d="M42.221 32.859H6.21332C4.48412 32.859 3.08221 31.4571 3.08221 29.7279V7.81018C3.08221 7.56833 3.11044 7.33334 3.16232 7.10751C1.77148 7.42642 0.733887 8.67078 0.733887 10.1585V32.0762C0.733887 33.8054 2.13579 35.2073 3.86499 35.2073H39.8727C41.3604 35.2073 42.6048 34.1697 42.9237 32.7789C42.6978 32.8308 42.4629 32.859 42.221 32.859Z" fill="#FFDB49"/>
<path d="M0.733887 13.2896H43.0038V17.9863H0.733887V13.2896Z" fill="#979181"/>
<path d="M0.733887 13.2896H3.08221V17.9863H0.733887V13.2896Z" fill="#8A8472"/>
<path d="M3.08228 21.9001H11.6928V25.0312H3.08228V21.9001Z" fill="#F8F8F7"/>
<path d="M46.1349 0.03125H10.1273C8.004 0.03125 6.27518 1.75244 6.26221 3.87265L6.11305 6.29346H3.86505C1.73378 6.29346 0 8.02724 0 10.1585V32.0762C0 34.2075 1.73378 35.9413 3.86505 35.9413H39.8727C42.004 35.9413 43.7378 34.2075 43.7378 32.0762V29.8382L46.1605 29.6791C48.28 29.6653 50 27.9369 50 25.814V3.8963C50 1.76503 48.2662 0.03125 46.1349 0.03125V0.03125ZM3.86505 7.76135H39.8727C41.1945 7.76135 42.2699 8.83672 42.2699 10.1585V12.5557H34.3933C33.9878 12.5557 33.6594 12.8841 33.6594 13.2896C33.6594 13.6951 33.9878 14.0236 34.3933 14.0236H42.2699V17.2523H1.4679V14.0236H30.8708C31.2763 14.0236 31.6048 13.6951 31.6048 13.2896C31.6048 12.8841 31.2763 12.5557 30.8708 12.5557H1.4679V10.1585C1.4679 8.83672 2.54326 7.76135 3.86505 7.76135ZM39.8727 34.4734H3.86505C2.54326 34.4734 1.4679 33.398 1.4679 32.0762V18.7202H42.2699V32.0762C42.2699 33.398 41.1945 34.4734 39.8727 34.4734ZM48.5321 25.814C48.5321 27.1358 47.4571 28.2112 46.1349 28.2112C46.1189 28.2112 46.1029 28.2119 46.0869 28.2131L43.7378 28.3672V10.1585C43.7378 8.02724 42.004 6.29346 39.8727 6.29346H7.58362L7.72858 3.94131C7.72934 3.92644 7.7301 3.91118 7.7301 3.8963C7.7301 2.57413 8.80547 1.49915 10.1273 1.49915H46.1349C47.4571 1.49915 48.5321 2.57413 48.5321 3.8963V25.814Z" fill="black"/>
<path d="M11.6929 21.1662H3.08234C2.67683 21.1662 2.34839 21.4946 2.34839 21.9001V25.0312C2.34839 25.4368 2.67683 25.7652 3.08234 25.7652H11.6929C12.098 25.7652 12.4268 25.4368 12.4268 25.0312V21.9001C12.4268 21.4946 12.098 21.1662 11.6929 21.1662ZM10.9589 24.2973H3.81628V22.6341H10.9589V24.2973Z" fill="black"/>
<path d="M14.8238 22.6341H21.8688C22.2739 22.6341 22.6027 22.3056 22.6027 21.9001C22.6027 21.4946 22.2739 21.1662 21.8688 21.1662H14.8238C14.4183 21.1662 14.0898 21.4946 14.0898 21.9001C14.0898 22.3056 14.4183 22.6341 14.8238 22.6341Z" fill="black"/>
<path d="M28.131 24.2973H14.8238C14.4183 24.2973 14.0898 24.6257 14.0898 25.0312C14.0898 25.4368 14.4183 25.7652 14.8238 25.7652H28.131C28.5365 25.7652 28.8649 25.4368 28.8649 25.0312C28.8649 24.6257 28.5365 24.2973 28.131 24.2973Z" fill="black"/>
</svg>
