<svg width="40" height="50" viewBox="0 0 40 50" fill="none" xmlns="http://www.w3.org/2000/svg">
<path d="M31.3546 49.2754C32.5217 49.2754 33.4677 48.3293 33.4677 47.1623V7.21288C33.4677 6.04619 32.5221 5.10028 31.3555 5.09979H6.98857C5.8215 5.09979 4.87549 6.0459 4.87549 7.21288V47.1623C4.87549 48.3293 5.82159 49.2754 6.98857 49.2754H31.3546Z" fill="#F4E066"/>
<path d="M37.0158 5.09979H30.8335C32.0006 5.09979 32.9466 6.0459 32.9466 7.21288V47.1623C32.9466 48.3293 32.0005 49.2754 30.8335 49.2754H37.0158C38.1828 49.2754 39.1288 48.3293 39.1288 47.1623V7.21288C39.1289 6.0459 38.1828 5.09979 37.0158 5.09979Z" fill="#EFD133"/>
<path d="M27.3505 44.9002C28.5176 44.9002 29.4636 43.9542 29.4636 42.7871V2.83775C29.4636 1.67136 28.5185 0.725647 27.3523 0.72467H9.68746C9.38179 0.72467 9.08502 0.792466 8.81218 0.917018C8.67414 0.980026 8.58163 1.11435 8.58163 1.26606V6.7519C8.58163 7.6815 7.82807 8.43506 6.89848 8.43506H1.41272C1.26101 8.43506 1.12513 8.52543 1.06212 8.66346C0.93757 8.9363 0.871338 9.23513 0.871338 9.54079V42.7871C0.871338 43.9542 1.81744 44.9002 2.98442 44.9002H33.0115H33.0134H27.3505Z" fill="#F7F4F7"/>
<path d="M33.0114 0.724548H26.8291C27.9962 0.724548 28.9422 1.67065 28.9422 2.83763V42.787C28.9422 43.9541 27.9961 44.9001 26.8291 44.9001H33.0114C34.1784 44.9001 35.1244 43.9541 35.1244 42.787V2.83773C35.1245 1.67065 34.1784 0.724548 33.0114 0.724548Z" fill="#EDEAED"/>
<path d="M8.81221 0.91687C8.58441 1.02071 8.37369 1.16304 8.19326 1.34347L1.49032 8.04651C1.30989 8.22694 1.16756 8.43756 1.06372 8.66546H7.12905C8.05865 8.66546 8.81212 7.9119 8.81212 6.9824V0.91687H8.81221Z" fill="#C1BCC4"/>
<path d="M13.2007 22.1271V30.3563H16.0158V20.5212C16.0158 20.251 15.7078 20.0962 15.4911 20.2575L13.3331 21.8634C13.2498 21.9254 13.2007 22.0232 13.2007 22.1271Z" fill="#F4E066"/>
<path d="M19.9802 24.5229V30.3563H22.7955V22.8451C22.7955 22.5716 22.481 22.4178 22.2652 22.5856L20.1072 24.2635C20.0271 24.3258 19.9802 24.4215 19.9802 24.5229Z" fill="#BADD93"/>
<path d="M26.7598 19.2444V30.3563H29.575V17.7692C29.575 17.4116 29.1636 17.2107 28.8815 17.4304L26.8865 18.9852C26.8065 19.0475 26.7598 19.1431 26.7598 19.2444Z" fill="#E07F84"/>
<path d="M6.42114 30.3563H9.2364V25.7478C9.2364 25.4737 8.92058 25.3201 8.70498 25.4893L6.54696 27.1824C6.46754 27.2447 6.42124 27.34 6.42124 27.4409V30.3563H6.42114Z" fill="#9BC4F9"/>
<path d="M6.87405 21.4088L15.6711 14.596L19.3954 17.9419C19.894 18.3903 20.6411 18.4175 21.1713 18.007L28.6327 12.2286L28.4324 13.8774C28.3836 14.279 28.6697 14.6443 29.0713 14.6931C29.4747 14.742 29.8384 14.4545 29.887 14.0542C30.2713 10.8813 30.3024 10.676 30.3042 10.588C30.3115 10.169 29.969 9.83474 29.5579 9.84216H26.0482C25.6435 9.84216 25.3155 10.1701 25.3155 10.5748C25.3155 10.9795 25.6435 11.3075 26.0482 11.3075H27.429L20.326 16.8084L16.6017 13.4622C16.103 13.0143 15.3562 12.9869 14.8258 13.3974L5.97699 20.2503C5.65706 20.498 5.59854 20.9582 5.84628 21.2781C6.09343 21.5975 6.55393 21.6569 6.87405 21.4088Z" fill="black"/>
<path d="M31.4043 29.6218H30.3045V17.7717C30.3045 16.8058 29.1922 16.2598 28.4282 16.8551L26.4338 18.4093C26.1739 18.6118 26.0249 18.9169 26.0249 19.2463V29.6218H23.5272V22.8458C23.5272 21.9643 22.5127 21.4654 21.8147 22.0081L19.6572 23.6856C19.397 23.8882 19.2477 24.1935 19.2477 24.5232V29.6218H16.75V20.5225C16.75 19.6506 15.7552 19.1507 15.0553 19.6713L12.8979 21.2768C12.6302 21.4761 12.4704 21.7943 12.4704 22.1279V24.2536C12.4704 24.6584 12.7983 24.9863 13.2031 24.9863C13.6078 24.9863 13.9357 24.6584 13.9357 24.2536V22.331L15.2847 21.3272V29.6218H13.9357V27.6789C13.9357 27.2741 13.6078 26.9462 13.2031 26.9462C12.7983 26.9462 12.4704 27.2741 12.4704 27.6789V29.6218H9.97272V25.7475C9.97272 24.8626 8.95306 24.3668 8.25654 24.9126L6.0997 26.605C5.84131 26.8074 5.69322 27.1118 5.69322 27.4401V29.6218H4.59325C4.18853 29.6218 3.8606 29.9497 3.8606 30.3544C3.8606 30.7591 4.18853 31.0871 4.59325 31.0871H31.4043C31.8091 31.0871 32.137 30.7591 32.137 30.3544C32.137 29.9497 31.809 29.6218 31.4043 29.6218ZM27.4902 19.4438L28.8392 18.3926V29.6218H27.4902V19.4438ZM20.7129 24.7209L22.0619 23.6721V29.6219H20.7129V24.7209ZM7.15834 27.6368L8.50731 26.5783V29.6218H7.15834V27.6368Z" fill="black"/>
<path d="M12.0875 34.8502H4.59325C4.18853 34.8502 3.8606 35.1782 3.8606 35.5829C3.8606 35.9876 4.18853 36.3155 4.59325 36.3155H12.0876C12.4923 36.3155 12.8202 35.9876 12.8202 35.5829C12.8202 35.1782 12.4922 34.8502 12.0875 34.8502Z" fill="black"/>
<path d="M12.0875 38.2366H4.59325C4.18853 38.2366 3.8606 38.5646 3.8606 38.9693C3.8606 39.374 4.18853 39.7019 4.59325 39.7019H12.0876C12.4923 39.7019 12.8202 39.374 12.8202 38.9693C12.8202 38.5646 12.4922 38.2366 12.0875 38.2366Z" fill="black"/>
<path d="M37.01 4.37367H35.8521V2.84506C35.8522 1.27629 34.5758 0 33.0072 0H9.69087C8.89696 0 8.18238 0.329891 7.67909 0.833276C7.54067 0.9717 8.79781 -0.285639 0.93248 7.58106C0.446289 8.09099 0.14502 8.78574 0.14502 9.54575V42.7811C0.14502 44.3498 1.42131 45.6261 2.99008 45.6261H4.14797V47.1548C4.14797 48.7236 5.42426 49.9999 6.99303 49.9999H37.01C38.5788 49.9999 39.8551 48.7236 39.8551 47.1548V7.21873C39.8551 5.65006 38.5788 4.37367 37.01 4.37367ZM8.08322 2.50149V6.98829C8.08322 7.51199 7.65711 7.9382 7.13331 7.9382H2.64651L8.08322 2.50149ZM38.3898 47.1549C38.3898 47.9157 37.7708 48.5347 37.01 48.5347H6.99303C6.23224 48.5347 5.61329 47.9157 5.61329 47.1549V45.6262H33.0072C34.5759 45.6262 35.8522 44.3499 35.8522 42.7812V40.0678C35.8522 39.6631 35.5243 39.3351 35.1196 39.3351C34.7149 39.3351 34.3869 39.6631 34.3869 40.0678V42.7812C34.3869 43.542 33.768 44.1609 33.0072 44.1609H2.99017C2.22938 44.1609 1.61043 43.542 1.61043 42.7812V9.54585C1.61043 9.49798 1.61288 9.45051 1.61766 9.40352H7.13341C8.46518 9.40352 9.54864 8.32006 9.54864 6.98829V1.47254C9.68266 1.45877 8.58211 1.46786 33.0073 1.46532C33.7681 1.46532 34.387 2.08427 34.387 2.84506V36.6426C34.387 37.0473 34.715 37.3752 35.1197 37.3752C35.5244 37.3752 35.8523 37.0473 35.8523 36.6426V5.83899H37.0102C37.771 5.83899 38.39 6.45794 38.39 7.21873V47.1549H38.3898Z" fill="black"/>
</svg>
