<svg width="20" height="20" viewBox="0 0 20 20" fill="none" xmlns="http://www.w3.org/2000/svg">
<path d="M19.2944 9.12238C20.1034 8.33381 19.657 6.95991 18.5391 6.79755L14.1927 6.16599C13.7486 6.10145 13.3649 5.82252 13.1663 5.4203L11.2225 1.4817C10.7225 0.468666 9.27795 0.468666 8.77807 1.4817L6.83425 5.4203C6.63574 5.82252 6.25198 6.10145 5.80795 6.16599L1.46148 6.79755C0.34347 6.95991 -0.10285 8.33381 0.706018 9.12238L3.85131 12.1882C4.17251 12.5013 4.31899 12.9523 4.24331 13.3945L3.50082 17.7235C3.30978 18.8369 4.47845 19.686 5.47836 19.1602L9.36599 17.1165C9.76303 16.9077 10.2374 16.9077 10.6345 17.1165L14.5221 19.1602C15.522 19.6859 16.6907 18.8369 16.4998 17.7235L15.7573 13.3945C15.6815 12.9525 15.8281 12.5013 16.1493 12.1882L19.2944 9.12238Z" fill="#F4E64C"/>
<path d="M5.06332 18.1142L5.80581 13.7853C5.88165 13.3431 5.73501 12.8921 5.41381 12.5789L2.26867 9.51315C1.45965 8.72458 1.90612 7.35068 3.02398 7.18832L7.37045 6.55676C7.81448 6.49222 8.19824 6.21344 8.39675 5.81107L10.3406 1.87247C10.5005 1.54852 10.7571 1.3288 11.0484 1.21207C10.4463 0.479186 9.22866 0.568908 8.77807 1.48184L6.83425 5.42044C6.63574 5.82281 6.25198 6.10159 5.80795 6.16614L1.46148 6.7977C0.34347 6.96005 -0.10285 8.33395 0.706018 9.12253L3.85131 12.1883C4.17251 12.5014 4.31899 12.9525 4.24331 13.3947L3.50082 17.7236C3.31741 18.7926 4.38735 19.6172 5.35812 19.2161C5.11733 18.9294 4.99008 18.5415 5.06332 18.1142V18.1142Z" fill="#FAB659"/>
<path d="M6.22168 9.10815V9.73895C6.22168 9.90085 6.35275 10.0319 6.51465 10.0319C6.67639 10.0319 6.80762 9.90085 6.80762 9.73895V9.10815C6.80762 8.94641 6.67639 8.81519 6.51465 8.81519C6.35275 8.81519 6.22168 8.94641 6.22168 9.10815Z" fill="black"/>
<path d="M13.7783 9.73895V9.10815C13.7783 8.94641 13.6471 8.81519 13.4854 8.81519C13.3236 8.81519 13.1924 8.94641 13.1924 9.10815V9.73895C13.1924 9.90085 13.3236 10.0319 13.4854 10.0319C13.6471 10.0319 13.7783 9.90085 13.7783 9.73895Z" fill="black"/>
<path d="M9.99984 10.3687C10.4196 10.3687 10.8136 10.1935 11.0806 9.88789C11.1871 9.76613 11.1746 9.58104 11.0529 9.47453C10.9311 9.36803 10.746 9.38039 10.6395 9.5023C10.4837 9.68053 10.2505 9.78276 9.99984 9.78276C9.74914 9.78276 9.51599 9.68053 9.36019 9.5023C9.25384 9.38054 9.06875 9.36803 8.94683 9.47453C8.82507 9.58104 8.81256 9.76613 8.91906 9.88789C9.18609 10.1935 9.58007 10.3687 9.99984 10.3687Z" fill="black"/>
<path d="M3.95419 13.3456L3.2117 17.6747C3.10443 18.3005 3.35681 18.921 3.87057 19.2943C4.38419 19.6675 5.05237 19.7157 5.6145 19.4203L9.50214 17.3766C9.81387 17.2125 10.1862 17.2125 10.4979 17.3766C10.4979 17.3766 14.3854 19.4203 14.3856 19.4203C14.9303 19.7067 15.6183 19.6657 16.1295 19.2943C16.6431 18.921 16.8956 18.3005 16.7882 17.6747L16.4496 15.6999C16.4221 15.5405 16.2709 15.4333 16.1113 15.4607C15.9517 15.4881 15.8448 15.6395 15.8721 15.7989L16.2107 17.7737C16.2812 18.1842 16.122 18.5754 15.7851 18.8202C15.4482 19.0651 15.0269 19.0955 14.6582 18.9017L10.7706 16.8579C10.2881 16.6042 9.71194 16.6042 9.22946 16.8579L5.34183 18.9017C4.97317 19.0955 4.55188 19.0651 4.21497 18.8202C3.87805 18.5754 3.7189 18.1842 3.78925 17.7737L4.53174 13.4448C4.6239 12.9076 4.44583 12.3596 4.05551 11.9791L0.91037 8.91327C0.612213 8.62259 0.510894 8.21258 0.639526 7.81647C0.76831 7.42035 1.09119 7.14813 1.50333 7.08816L5.84994 6.4566C6.38934 6.37817 6.8555 6.03958 7.09674 5.55069L7.99808 3.72452C8.06964 3.57941 8.01013 3.40378 7.86502 3.33206C7.71976 3.2605 7.54428 3.32001 7.47256 3.46512L6.57123 5.29144C6.41544 5.60715 6.11423 5.82611 5.76556 5.87677L1.4191 6.50833C0.790741 6.59958 0.278503 7.0314 0.0822751 7.63534C-0.113953 8.23913 0.0467221 8.88962 0.501281 9.33273L3.64658 12.3985C3.8988 12.6445 4.01385 12.9985 3.95419 13.3456V13.3456Z" fill="black"/>
<path d="M18.5813 6.50833L14.2347 5.87677C13.8862 5.82611 13.585 5.6073 13.429 5.29144L11.4854 1.35269C11.2043 0.783386 10.6353 0.429688 10.0004 0.429688C9.36545 0.429688 8.79645 0.783386 8.51538 1.35269L8.02054 2.3555C7.94897 2.50046 8.00848 2.67624 8.15359 2.7478C8.2987 2.81937 8.47433 2.75986 8.54605 2.61475L9.04089 1.61209C9.22522 1.23856 9.5838 1.01562 10.0004 1.01562C10.4169 1.01562 10.7755 1.23856 10.9598 1.61209L12.9037 5.55069C13.145 6.03958 13.6111 6.37817 14.1505 6.4566L18.4971 7.08817C18.9092 7.14813 19.2321 7.42035 19.3609 7.81647C19.4895 8.21259 19.3883 8.62259 19.09 8.91327L15.9449 11.9791C15.5546 12.3596 15.3765 12.9076 15.4687 13.4448C15.4687 13.4448 15.628 14.3741 15.6283 14.3759C15.6553 14.5326 15.8103 14.642 15.9666 14.6152C16.1262 14.5879 16.2331 14.4363 16.2058 14.2769L16.0462 13.3458C15.9865 12.9987 16.1016 12.6445 16.3538 12.3987L19.4991 9.33289C19.9537 8.88977 20.1143 8.23929 19.9181 7.63535C19.7219 7.0314 19.2097 6.59958 18.5813 6.50833V6.50833Z" fill="black"/>
</svg>
