<svg width="46" height="50" viewBox="0 0 46 50" fill="none" xmlns="http://www.w3.org/2000/svg">
<path d="M42.236 0.733521H15.167C16.1388 0.733521 17.008 1.33791 17.3463 2.24894L18.7287 6.52977C19.188 7.76619 20.3677 8.5866 21.6867 8.5866H42.0257C43.3097 8.5866 44.3505 9.62741 44.3505 10.9115V2.84806C44.3506 1.68508 43.3991 0.733521 42.236 0.733521Z" fill="#FEC458"/>
<path d="M26.9349 6.52981L25.5524 2.24895C25.2141 1.33791 24.3448 0.733521 23.373 0.733521H15.167C16.1388 0.733521 17.008 1.33791 17.3463 2.24895L18.7287 6.52981C19.188 7.76623 20.3678 8.58665 21.6867 8.58665H29.8928C28.5739 8.58655 27.394 7.76614 26.9349 6.52981Z" fill="#F9AB49"/>
<path d="M42.0256 8.02847H22.2447C20.9258 8.02847 19.746 7.20807 19.2867 5.97165L17.9043 2.24882C17.566 1.33789 16.6968 0.733398 15.725 0.733398H3.97616C2.69218 0.733398 1.65137 1.77421 1.65137 3.05819V32.568C1.65137 33.8519 2.69218 34.8927 3.97606 34.8927H42.0256C43.3096 34.8927 44.3504 33.8519 44.3504 32.5679V10.3532C44.3505 9.06929 43.3096 8.02847 42.0256 8.02847Z" fill="#FFE181"/>
<path d="M9.09175 32.5681V3.05831C9.09175 1.77433 10.1326 0.733521 11.4165 0.733521H3.97616C2.69218 0.733521 1.65137 1.77433 1.65137 3.05831V32.5681C1.65137 33.852 2.69218 34.8928 3.97616 34.8928H11.4165C10.1327 34.8929 9.09175 33.8521 9.09175 32.5681Z" fill="#FEC458"/>
<path d="M23.867 49.2686C31.2421 49.2686 37.2208 43.2899 37.2208 35.9148C37.2208 28.5397 31.2421 22.561 23.867 22.561C16.4919 22.561 10.5132 28.5397 10.5132 35.9148C10.5132 43.2899 16.4919 49.2686 23.867 49.2686Z" fill="#DFEBFA"/>
<path d="M16.6592 35.9148C16.6592 29.5974 21.0463 24.305 26.94 22.9169C25.9533 22.6845 24.9246 22.561 23.867 22.561C16.492 22.561 10.5132 28.5396 10.5132 35.9148C10.5132 43.29 16.4919 49.2686 23.867 49.2686C24.9246 49.2686 25.9533 49.1451 26.94 48.9127C21.0463 47.5246 16.6592 42.2323 16.6592 35.9148Z" fill="#BED8FB"/>
<path d="M28.3812 35.8353H26.5081C26.1837 35.8353 25.9207 36.0983 25.9207 36.4227V43.1358C25.9207 43.5707 25.568 43.9235 25.133 43.9235H22.601C22.166 43.9235 21.8133 43.5708 21.8133 43.1358V36.4227C21.8133 36.0983 21.5503 35.8353 21.2259 35.8353H19.3528C18.7536 35.8353 18.3901 35.1744 18.711 34.6684L23.2251 27.548C23.5236 27.0772 24.2104 27.0772 24.509 27.548L29.0231 34.6684C29.3439 35.1744 28.9803 35.8353 28.3812 35.8353Z" fill="#9DC6FB"/>
<path d="M24.5967 43.1359V36.4228C24.5967 36.0984 24.3337 35.8354 24.0093 35.8354H22.1361C21.537 35.8354 21.1734 35.1745 21.4942 34.6684L25.2587 28.7305L24.509 27.548C24.2104 27.0772 23.5236 27.0772 23.2251 27.548L18.711 34.6684C18.3901 35.1744 18.7536 35.8353 19.3528 35.8353H21.226C21.5504 35.8353 21.8134 36.0983 21.8134 36.4227V43.1358C21.8134 43.5707 22.166 43.9235 22.601 43.9235H25.133C25.1759 43.9235 25.2176 43.9191 25.2586 43.9125C24.8836 43.8523 24.5967 43.528 24.5967 43.1359Z" fill="#80B4FB"/>
<path d="M30.8775 0.732418C30.8775 0.327928 30.5496 0 30.145 0H15.724H3.97528C2.28945 0 0.917969 1.37148 0.917969 3.05721V32.567C0.917969 34.2527 2.28945 35.6242 3.97518 35.6242H9.78364C9.78169 35.7206 9.77993 35.817 9.77993 35.9139C9.77993 43.681 16.099 50 23.8662 50C31.6333 50 37.9523 43.681 37.9523 35.9139C37.9523 35.817 37.9506 35.7206 37.9486 35.6242H42.0247C43.7105 35.6242 45.082 34.2527 45.082 32.5669V10.3523V2.84696C45.0821 1.27714 43.8048 0 42.235 0H33.563C33.1584 0 32.8306 0.327928 32.8306 0.732418C32.8306 1.13691 33.1584 1.46484 33.563 1.46484H42.235C42.9971 1.46484 43.6171 2.08485 43.6171 2.84696V7.74331C43.1657 7.4648 42.6056 7.29498 42.0247 7.29498H22.2437C21.2374 7.29498 20.3237 6.66148 19.9723 5.71559C19.2244 3.70164 19.4926 4.4237 18.5898 1.99266C18.5897 1.99227 18.5895 1.99198 18.5893 1.99159C18.5275 1.82538 18.434 1.62958 18.333 1.46484H30.145C30.5496 1.46484 30.8775 1.13691 30.8775 0.732418ZM23.8663 48.5352C16.9067 48.5352 11.2449 42.8732 11.2449 35.9139C11.2449 28.896 17.0056 23.2924 23.8663 23.2924C30.7753 23.2924 36.4876 28.9463 36.4876 35.9139C36.4876 42.8732 30.8256 48.5352 23.8663 48.5352ZM18.5992 6.22565C19.163 7.74331 20.629 8.75981 22.2437 8.75981H42.0248C42.9028 8.75981 43.6172 9.47416 43.6172 10.3523V32.5669C43.6172 33.4449 42.9029 34.1594 42.0248 34.1594H37.8441C36.9712 27.1363 30.9792 21.8276 23.8662 21.8276C16.7432 21.8276 10.7601 27.1446 9.88823 34.1594H3.97518C3.09716 34.1594 2.3828 33.4451 2.3828 32.567V3.05721C2.3828 2.17919 3.09725 1.46484 3.97528 1.46484H15.724C16.3857 1.46484 16.986 1.88153 17.2167 2.50272C17.9645 4.51667 17.6965 3.7947 18.5992 6.22565Z" fill="black"/>
<path d="M25.1268 27.1546C24.8516 26.7205 24.3803 26.4614 23.8663 26.4614C23.3524 26.4614 22.8811 26.7204 22.6059 27.1547L18.0917 34.2751C17.4627 35.2671 18.1771 36.5667 19.352 36.5667H21.0801V43.1348C21.0801 43.973 21.7621 44.6548 22.6002 44.6548H25.1322C25.9704 44.6548 26.6523 43.973 26.6523 43.1348V40.7698C26.6523 40.3652 26.3244 40.0374 25.9198 40.0374C25.5153 40.0374 25.1874 40.3652 25.1874 40.7698V43.1348C25.1874 43.1653 25.1626 43.19 25.1322 43.19H22.6002C22.5697 43.19 22.545 43.1652 22.545 43.1348V36.4217C22.545 35.6939 21.9529 35.1018 21.2251 35.1018H19.3519C19.329 35.1018 19.3166 35.0787 19.3287 35.0594L23.8429 27.9391C23.8473 27.9322 23.851 27.9262 23.8662 27.9262C23.8815 27.9262 23.8852 27.9322 23.8896 27.939L28.4037 35.0595C28.4159 35.0787 28.4034 35.1018 28.3805 35.1018H26.5072C25.7795 35.1018 25.1874 35.6939 25.1874 36.4217V37.3518C25.1874 37.7564 25.5153 38.0842 25.9198 38.0842C26.3244 38.0842 26.6523 37.7564 26.6523 37.3518V36.5667H28.3804C29.5548 36.5667 30.27 35.2675 29.6407 34.2751L25.1268 27.1546Z" fill="black"/>
</svg>
