<svg width="50" height="44" viewBox="0 0 50 44" fill="none" xmlns="http://www.w3.org/2000/svg">
<path d="M46.7285 42.8496H3.27148C1.86924 42.8496 0.732422 41.7128 0.732422 40.3105V12.5762H49.2676V40.3105C49.2676 41.7128 48.1308 42.8496 46.7285 42.8496Z" fill="#EEF5F6"/>
<path d="M46.3379 12.5762V40.3105C46.3379 41.7128 45.2011 42.8496 43.7988 42.8496H46.7285C48.1308 42.8496 49.2676 41.7128 49.2676 40.3105V12.5762H46.3379Z" fill="#DEECF1"/>
<path d="M49.2676 12.5762H0.732422V7.30273C0.732422 5.90049 1.86924 4.76367 3.27148 4.76367H46.7285C48.1308 4.76367 49.2676 5.90049 49.2676 7.30273V12.5762Z" fill="#918291"/>
<path d="M46.7285 4.76367H43.7988C45.2011 4.76367 46.3379 5.90049 46.3379 7.30273V12.5762H49.2676V7.30273C49.2676 5.90049 48.1308 4.76367 46.7285 4.76367Z" fill="#7A6D79"/>
<path d="M7.24902 10.2004C8.11197 10.2004 8.81152 9.50082 8.81152 8.63788C8.81152 7.77493 8.11197 7.07538 7.24902 7.07538C6.38608 7.07538 5.68652 7.77493 5.68652 8.63788C5.68652 9.50082 6.38608 10.2004 7.24902 10.2004Z" fill="#FE646F"/>
<path d="M12.9783 10.2004C13.8412 10.2004 14.5408 9.50082 14.5408 8.63788C14.5408 7.77493 13.8412 7.07538 12.9783 7.07538C12.1153 7.07538 11.4158 7.77493 11.4158 8.63788C11.4158 9.50082 12.1153 10.2004 12.9783 10.2004Z" fill="#FFD15B"/>
<path d="M18.7075 10.2004C19.5705 10.2004 20.27 9.50082 20.27 8.63788C20.27 7.77493 19.5705 7.07538 18.7075 7.07538C17.8446 7.07538 17.145 7.77493 17.145 8.63788C17.145 9.50082 17.8446 10.2004 18.7075 10.2004Z" fill="#8379C1"/>
<path d="M24.7654 18.3491C25.2751 18.3491 25.6861 18.7691 25.6728 19.2787C25.5726 23.116 24.7637 26.4921 21.1795 28.7799C17.3084 31.2496 18.0105 33.6773 18.0105 33.6773H12.8533C12.8533 33.6773 13.5554 31.2496 9.68435 28.7799C6.09997 26.4922 5.2903 23.1161 5.19001 19.2788C5.17673 18.7693 5.58776 18.3492 6.09743 18.3492H24.7654V18.3491Z" fill="#FFD15B"/>
<path d="M24.7653 18.3491H21.8356C22.3453 18.3491 22.7563 18.7691 22.7431 19.2787C22.6429 23.116 21.834 26.4921 18.2497 28.7799C14.3786 31.2496 15.0808 33.6773 15.0808 33.6773H18.0104C18.0104 33.6773 17.3083 31.2496 21.1794 28.7799C24.7638 26.4922 25.5727 23.1161 25.6728 19.2787C25.686 18.7692 25.275 18.3491 24.7653 18.3491V18.3491Z" fill="#FFC344"/>
<path d="M20.918 37.1929H9.94443C9.52295 37.1929 9.18115 36.8512 9.18115 36.4296V36.1942C9.18115 34.8041 10.308 33.6772 11.6981 33.6772H19.1642C20.5543 33.6772 21.6812 34.8041 21.6812 36.1942V36.4296C21.6812 36.8512 21.3395 37.1929 20.918 37.1929Z" fill="#FFC344"/>
<path d="M19.1643 33.6772H16.2346C17.6248 33.6772 18.7516 34.8042 18.7516 36.1942V36.4297C18.7516 36.8512 18.4099 37.1929 17.9883 37.1929H20.918C21.3395 37.1929 21.6813 36.8512 21.6813 36.4297V36.1942C21.6813 34.8042 20.5544 33.6772 19.1643 33.6772Z" fill="#FEB237"/>
<path d="M36.1447 2.06757L37.1926 4.18925C37.4324 4.6749 37.8961 5.01152 38.4324 5.08935L40.7757 5.42958C42.1264 5.62568 42.6657 7.28427 41.6883 8.23622L39.9927 9.88779C39.6046 10.2658 39.4275 10.8104 39.5191 11.3442L39.9194 13.6763C40.1501 15.0204 38.7381 16.0455 37.53 15.4108L35.4341 14.3099C34.9544 14.0578 34.3813 14.0578 33.9015 14.3099L31.8056 15.4108C30.5975 16.0455 29.1856 15.0204 29.4162 13.6763L29.8165 11.3442C29.9081 10.8104 29.7311 10.2658 29.3429 9.88779L27.6473 8.23622C26.6699 7.28427 27.2092 5.62568 28.5599 5.42958L30.9031 5.08935C31.4395 5.01152 31.9032 4.6749 32.143 4.18925L33.1909 2.06757C33.7953 0.844623 35.5407 0.844623 36.1447 2.06757V2.06757Z" fill="#FFD15B"/>
<path d="M40.7759 5.42968L38.4326 5.08944C37.8963 5.01161 37.4326 4.67499 37.1928 4.18934L36.1448 2.06766C35.5408 0.844714 33.7955 0.844714 33.1915 2.06766L32.8638 2.73124C33.0022 2.86151 33.1223 3.0204 33.2152 3.20848L34.0492 4.89686C34.423 5.6538 35.1454 6.17841 35.9809 6.29969L36.6158 6.39188C38.4692 6.66102 39.209 8.93885 37.8674 10.2456L37.6272 10.4795C36.8861 11.2013 36.548 12.2417 36.723 13.2612L36.9901 14.8171C37.009 14.927 37.0158 15.0345 37.0138 15.1394L37.5305 15.4109C38.7386 16.0456 40.1505 15.0205 39.9198 13.6764L39.5195 11.3443C39.4279 10.8105 39.605 10.2659 39.9932 9.88788L41.6888 8.23632C42.6658 7.28436 42.1266 5.62577 40.7759 5.42968V5.42968Z" fill="#FFC344"/>
<path d="M46.7285 4.03125H37.9566C37.8998 4.00879 36.8551 1.83955 36.8014 1.74326C36.3976 0.925781 35.5801 0.417969 34.668 0.417969C33.7559 0.417969 32.9384 0.925781 32.5346 1.74326L31.4866 3.86504C31.457 3.925 31.4204 3.98018 31.3794 4.03125H3.27148C1.46758 4.03125 0 5.49883 0 7.30273V40.3105C0 42.1145 1.46758 43.582 3.27148 43.582H46.7285C48.5324 43.582 50 42.1145 50 40.3105V36.7686C50 36.364 49.6722 36.0361 49.2676 36.0361C48.863 36.0361 48.5352 36.364 48.5352 36.7686V40.3105C48.5352 41.3067 47.7247 42.1172 46.7285 42.1172H3.27148C2.27529 42.1172 1.46484 41.3067 1.46484 40.3105V13.3086H28.7364C28.2146 15.3236 30.2894 17.0254 32.1464 16.0593L34.2423 14.9583C34.5088 14.8181 34.8271 14.8183 35.0936 14.9583L37.1896 16.0593C37.5407 16.2438 37.9206 16.3349 38.2986 16.3349C39.8704 16.3354 40.9965 14.8303 40.5994 13.3086H48.5352V33.1929C48.5623 34.1546 49.9688 34.1664 50 33.1929V7.30273C50 5.49883 48.5324 4.03125 46.7285 4.03125ZM1.46484 11.8438V7.30273C1.46484 6.30654 2.27529 5.49609 3.27148 5.49609H27.0015C26.1823 6.41289 26.2322 7.91436 27.1364 8.76104L28.8321 10.4126C29.2618 10.8164 29.0656 11.3471 28.9879 11.8438H1.46484ZM38.8346 14.6926C38.5464 14.9021 38.186 14.9279 37.8708 14.7625L35.7749 13.6615C35.0818 13.2974 34.2542 13.2974 33.561 13.6615L31.4652 14.7625C31.1498 14.928 30.7896 14.9021 30.5014 14.6926C30.2141 14.4836 30.0783 14.15 30.1383 13.8001L30.5386 11.4683C30.6711 10.6966 30.4152 9.90957 29.8542 9.36309L28.1586 7.71152C27.6136 7.21182 27.9289 6.23789 28.6655 6.15449L31.0087 5.81426C31.7837 5.70186 32.4534 5.21563 32.8001 4.51377L33.848 2.39199C34.0055 2.07314 34.3119 1.88281 34.668 1.88281C35.024 1.88281 35.3305 2.07314 35.4879 2.39199L36.5358 4.51377C36.8825 5.21572 37.5522 5.70186 38.3271 5.81426L40.6705 6.15449C41.4047 6.23857 41.7244 7.21084 41.1772 7.71152L39.4817 9.36309C38.9206 9.90957 38.6647 10.6965 38.7973 11.4682L39.1976 13.8001C39.2576 14.15 39.1219 14.4836 38.8346 14.6926ZM40.348 11.8438C40.27 11.3453 40.0744 10.8162 40.5039 10.4126L42.1995 8.76104C43.1036 7.91475 43.1537 6.4124 42.3345 5.49609H46.7285C47.7247 5.49609 48.5352 6.30654 48.5352 7.30273V11.8438H40.348Z" fill="black"/>
<path d="M7.24902 6.34296C5.98359 6.34296 4.9541 7.37245 4.9541 8.63788C5.06943 11.6782 9.429 11.6774 9.54395 8.63788C9.54395 7.37245 8.51445 6.34296 7.24902 6.34296ZM7.24902 9.46796C6.79131 9.46796 6.41895 9.09559 6.41895 8.63788C6.45801 7.53925 8.04023 7.53954 8.0791 8.63788C8.0791 9.0955 7.70674 9.46796 7.24902 9.46796Z" fill="black"/>
<path d="M12.9783 6.34296C11.7128 6.34296 10.6833 7.37245 10.6833 8.63788C10.7987 11.6782 15.1583 11.6774 15.2732 8.63788C15.2732 7.37245 14.2437 6.34296 12.9783 6.34296ZM12.9783 9.46796C12.5206 9.46796 12.1482 9.09559 12.1482 8.63788C12.1873 7.53925 13.7695 7.53954 13.8083 8.63788C13.8083 9.0955 13.436 9.46796 12.9783 9.46796Z" fill="black"/>
<path d="M18.7075 6.34296C17.4421 6.34296 16.4126 7.37245 16.4126 8.63788C16.5279 11.6782 20.8875 11.6774 21.0024 8.63788C21.0024 7.37245 19.9729 6.34296 18.7075 6.34296ZM18.7075 9.46796C18.2498 9.46796 17.8774 9.09559 17.8774 8.63788C17.9165 7.53925 19.4987 7.53954 19.5376 8.63788C19.5376 9.0955 19.1652 9.46796 18.7075 9.46796Z" fill="black"/>
<path d="M21.5734 29.3973C25.6666 26.7847 26.3127 22.8258 26.4049 19.2978C26.4474 18.4019 25.662 17.5973 24.7653 17.6167H11.9366C11.532 17.6167 11.2042 17.9445 11.2042 18.3491C11.2042 18.7537 11.532 19.0816 11.9366 19.0816H24.7653C24.8266 19.0816 24.8677 19.1106 24.8914 19.1349C24.9766 22.446 24.2747 25.9115 20.7855 28.1624C17.9358 29.9805 17.3227 31.8568 17.2417 32.9449H13.6219C12.686 27.046 5.95744 29.3084 5.92218 19.2597C5.9298 19.1459 5.98478 19.0933 6.09728 19.0816H8.48107C8.88566 19.0816 9.21349 18.7538 9.21349 18.3492C9.21349 17.9446 8.88566 17.6168 8.48107 17.6168H6.09728C5.2008 17.5976 4.41486 18.4018 4.45773 19.298C4.71076 30.0829 10.9968 28.1207 12.1578 32.9449C10.1924 32.7636 8.45431 34.1815 8.44884 36.1944C8.35793 37.1048 9.00714 37.9245 9.94464 37.9254H20.9181C21.8537 37.9247 22.5058 37.1048 22.4137 36.1943C22.4071 34.1815 20.6722 32.7641 18.7058 32.9449C18.7899 32.2187 19.2877 30.8555 21.5734 29.3973V29.3973ZM20.9488 36.1943V36.4297C20.9488 36.4467 20.935 36.4605 20.9181 36.4605C20.887 36.4298 9.90724 36.5192 9.91378 36.4297C9.81173 35.369 10.6132 34.4029 11.6984 34.4097H19.1644C20.1483 34.4097 20.9488 35.2103 20.9488 36.1943Z" fill="black"/>
<path d="M31.4104 23.9962H36.2656C37.2324 23.967 37.2347 22.5614 36.2656 22.5313H31.4104C31.0058 22.5313 30.678 22.8592 30.678 23.2638C30.678 23.6684 31.0058 23.9962 31.4104 23.9962Z" fill="black"/>
<path d="M41.762 26.2423H31.4104C30.4454 26.2708 30.4398 27.6767 31.4104 27.7071H41.762C42.727 27.6786 42.7326 26.2727 41.762 26.2423Z" fill="black"/>
<path d="M41.762 29.9532H31.4104C30.4454 29.9817 30.4398 31.3876 31.4104 31.4181H41.762C42.727 31.3895 42.7326 29.9837 41.762 29.9532Z" fill="black"/>
<path d="M41.762 33.6642H31.4104C30.4454 33.6927 30.4398 35.0985 31.4104 35.129H41.762C42.727 35.1005 42.7326 33.6946 41.762 33.6642Z" fill="black"/>
</svg>
